# xmcd
#
# Track frame offsets:
#	150
#	39789
#	76436
#	96427
#	146122
#	188460
#
# Disc length: 2910 seconds
#
# Revision: 1
# Processed by: cddbd v1.5.2PL0 Copyright (c) Steve Scherf et al.
# Submitted via: audiograbber 1.83.01
#
DISCID=450b5c06
DTITLE=Grateful Dead - 77-11-06 Broome County Arena, Binghampton NY
DYEAR=1900
DGENRE=
TTITLE0=The Music Never Stopped
TTITLE1=Samson and Delilah
TTITLE2=Sunrise
TTITLE3=Scarlet Begonias
TTITLE4=Fire On The Mountain
TTITLE5=Good Lovin
EXTD=
EXTT0=
EXTT1=
EXTT2=
EXTT3=
EXTT4=
EXTT5=
PLAYORDER=
